<?xml version="1.0" encoding="utf-8"?>
<!-- Generator: Adobe Illustrator 18.1.1, SVG Export Plug-In . SVG Version: 6.00 Build 0)  -->
<svg version="1.1" id="Layer_1" xmlns="http://www.w3.org/2000/svg" xmlns:xlink="http://www.w3.org/1999/xlink" x="0px" y="0px"
	 viewBox="0 0 18 18" enable-background="new 0 0 18 18" xml:space="preserve">
<g id="c142_x">
	<path d="M9,0C4,0,0,4,0,9c0,5,4,9,9,9c5,0,9-4,9-9C18,4,14,0,9,0z M13.7,11.7c0.4,0.4,0.4,1,0,1.4l-0.5,0.5c-0.4,0.4-1.1,0.4-1.4,0
		C10.7,12.7,9.2,11,9,11c-0.2,0-1.7,1.6-2.7,2.7c-0.4,0.4-1,0.4-1.4,0l-0.5-0.5c-0.4-0.4-0.4-1.1,0-1.4C5.4,10.8,7,9.2,7,9
		c0-0.2-1.6-1.8-2.6-2.7c-0.4-0.4-0.4-1,0-1.4l0.5-0.5c0.4-0.4,1-0.4,1.4,0C7.3,5.3,8.9,7,9,7c0.1,0,1.7-1.7,2.7-2.7
		c0.4-0.4,1-0.4,1.4,0l0.5,0.5c0.4,0.4,0.4,1.1,0,1.4C12.7,7.3,11,8.8,11,9C11,9.2,12.7,10.8,13.7,11.7z"/>
</g>
</svg>
