<?xml version="1.0" encoding="utf-8"?>
<!-- Generator: Adobe Illustrator 18.1.1, SVG Export Plug-In . SVG Version: 6.00 Build 0)  -->
<svg version="1.1" id="Layer_1" xmlns="http://www.w3.org/2000/svg" xmlns:xlink="http://www.w3.org/1999/xlink" x="0px" y="0px"
	 viewBox="0 0 18 16.3" enable-background="new 0 0 18 16.3" xml:space="preserve">
<g>
	<path d="M7.2,0v7.8c0,1.1-0.1,2.2-0.5,3.1c-0.4,1-0.9,1.8-1.5,2.6c-0.6,0.7-1.4,1.4-2.3,1.8C2,15.8,1,16.1,0,16.3v-3.3
		c1.3-0.4,2.2-1.1,2.6-2s0.7-1.9,0.7-3.2H0V0H7.2z M18,0v7.8c0,1.1-0.1,2.2-0.5,3.1c-0.4,1-0.9,1.8-1.5,2.6
		c-0.6,0.7-1.4,1.4-2.3,1.8c-0.9,0.5-1.9,0.8-2.9,0.9v-3.3c1.3-0.4,2.2-1.1,2.6-2c0.5-0.9,0.7-1.9,0.7-3.2h-3.3V0H18z"/>
</g>
</svg>
