<?xml version="1.0" encoding="utf-8"?>
<!-- Generator: Adobe Illustrator 18.1.1, SVG Export Plug-In . SVG Version: 6.00 Build 0)  -->
<svg version="1.1" id="Layer_1" xmlns="http://www.w3.org/2000/svg" xmlns:xlink="http://www.w3.org/1999/xlink" x="0px" y="0px"
	 viewBox="0 0 18 24.1" enable-background="new 0 0 18 24.1" xml:space="preserve">
<g>
	<g>
		<path d="M0,9c0-5,4-9,9-9c5,0,9,4,9,9c0,1.2-0.2,2.3-0.7,3.4c0,0,0,0,0,0c-0.1,0.1-0.5,0.9-1.1,2c0,0,0,0,0,0
			c-1.4,2.4-4.1,6.6-7.2,9.7c0,0-6.1-5.9-8.3-11.5c0-0.1,0-0.1-0.1-0.2C0.2,11.3,0,10.2,0,9z M9,5.1c-2.1,0-3.8,1.7-3.8,3.8
			s1.7,3.8,3.8,3.8s3.8-1.7,3.8-3.8S11.1,5.1,9,5.1z"/>
	</g>
</g>
</svg>
