<?xml version="1.0" encoding="utf-8"?>
<!-- Generator: Adobe Illustrator 18.1.1, SVG Export Plug-In . SVG Version: 6.00 Build 0)  -->
<svg version="1.1" id="Layer_1" xmlns="http://www.w3.org/2000/svg" xmlns:xlink="http://www.w3.org/1999/xlink" x="0px" y="0px"
	 viewBox="0 0 18 18" enable-background="new 0 0 18 18" xml:space="preserve">
<path opacity="0.9" d="M17.4,14.4l-4.6-4.5c0.5-0.9,0.7-2,0.7-3.1c0-1.8-0.7-3.5-2-4.8c-1.3-1.3-3-2-4.8-2C5,0,3.3,0.7,2,2
	C0.7,3.3,0,5,0,6.8s0.7,3.5,2,4.8c1.3,1.3,3,2,4.8,2c1.1,0,2.1-0.3,3.1-0.7l4.5,4.6c0.4,0.4,1,0.6,1.5,0.6s1.1-0.2,1.5-0.6
	C18.2,16.6,18.2,15.2,17.4,14.4z M3.8,9.8C3,9,2.5,7.9,2.5,6.8s0.4-2.2,1.2-3c0.8-0.8,1.9-1.2,3-1.2S9,3,9.8,3.8
	c0.8,0.8,1.2,1.9,1.2,3s-0.4,2.2-1.2,3C9,10.6,7.9,11,6.8,11C5.6,11,4.6,10.6,3.8,9.8z"/>
</svg>
